<svg xmlns="http://www.w3.org/2000/svg" viewBox="0 0 333334 321892" shape-rendering="geometricPrecision" text-rendering="geometricPrecision" image-rendering="optimizeQuality" fill-rule="evenodd" clip-rule="evenodd"><path d="M288078 60234c4833 5986 9294 12343 13729 20227 16241 28875 23120 61665 20317 93705-2738 31296-14732 61922-36281 87541-7739 9201-16043 17310-24772 24328-30145 24235-65852 36188-101469 35850-35626-339-71097-12979-100761-37929-8650-7275-16759-15533-24182-24766-17353-21585-28515-46902-32746-73616-4155-26236-1613-53790 8325-80445 9462-25377 23913-47972 42794-65663 17995-16862 39975-29279 65465-35440 7986-1931 16113-3194 24393-3728 8305-536 16801-354 25503 607 5452 601 9384 5508 8783 10960s-5508 9384-10960 8783c-7550-834-14906-993-22083-530-7201 465-14187 1543-20972 3183-21990 5316-40971 16044-56527 30621-16650 15601-29422 35604-37819 58124-8713 23367-10946 47485-7315 70418 3690 23300 13448 45409 28626 64289 6698 8332 13893 15680 21463 22046 26017 21883 57052 32969 88168 33265 31123 296 62395-10206 88878-31496 7854-6315 15248-13519 22052-21608 18764-22309 29218-49078 31617-76504 2462-28144-3574-56935-17830-82279-4302-7649-8710-13757-13597-19641l-1447 39864c-193 5473-4787 9754-10260 9561s-9754-4787-9561-10260l2306-63529c193-5473 4787-9754 10260-9561 341 12 678 41 1009 86l1-8 61581 8653c5430 751 9223 5763 8472 11193s-5763 9223-11193 8472l-33969-4773z" fill-rule="nonzero"/></svg>